# xmcd CD database file
#
# Track frame offsets:
#	150
#	13641
#	28760
#	48378
#	65620
#	80509
#	95987
#	113781
#	133720
#	155929
#	176100
#	195777
#	215034
#
# Disc length: 3157 seconds
#
# Revision: 2
# Processed by: cddbd v1.5.2PL0 Copyright (c) Steve Scherf et al.
# Submitted via: CDex 1.51
#
DISCID=bd0c530d
DTITLE=Fenton Robinson - Somebody Loan Me A Dime (Remaster)
DYEAR=1900
DGENRE=Blues
TTITLE0=Somebody Loan Me A Dime
TTITLE1=The Gataway
TTITLE2=Directly From My Heart To You
TTITLE3=Going To Chicago
TTITLE4=You Say You're Leaving
TTITLE5=Checking On My Woman
TTITLE6=You Don't Know What Love Is
TTITLE7=I've Changed
TTITLE8=Country Girl
TTITLE9=Gotta Wake Up
TTITLE10=Texas Flood
TTITLE11=I Hear Some Blues Downstairs
TTITLE12=As The Years Go Passing By
EXTD=
EXTT0=
EXTT1=
EXTT2=
EXTT3=
EXTT4=
EXTT5=
EXTT6=
EXTT7=
EXTT8=
EXTT9=
EXTT10=
EXTT11=
EXTT12=
PLAYORDER=
